<?xml version="1.0" encoding="UTF-8" standalone="no"?>
  <g transform="translate(-0.00,0.72) scale(1.439280)">
<svg
   version="1.1"
   id="Layer_1"
   x="0px"
   y="0px"
   viewBox="0 0 960 960"
   style="enable-background:new 0 0 667 666;"
   xml:space="preserve"
   xmlns="http://www.w3.org/2000/svg"
   xmlns:svg="http://www.w3.org/2000/svg"
   xmlns:rdf="http://www.w3.org/1999/02/22-rdf-syntax-ns#"
   xmlns:cc="http://creativecommons.org/ns#"
   xmlns:dc="http://purl.org/dc/elements/1.1/"><metadata
   id="metadata319"><rdf:RDF><cc:Work
       rdf:about=""><dc:format>image/svg+xml</dc:format><dc:type
         rdf:resource="http://purl.org/dc/dcmitype/StillImage" /></cc:Work></rdf:RDF></metadata><defs
   id="defs317"><marker
     orient="auto"
     refY="0"
     refX="0"
     id="Arrow1Send"
     style="overflow:visible"><path
       id="path4714"
       d="M 0,0 5,-5 -12.5,0 5,5 Z"
       style="fill:#000000;fill-opacity:1;fill-rule:evenodd;stroke:#000000;stroke-width:1.00000003pt;stroke-opacity:1"
       transform="matrix(-0.2,0,0,-0.2,-1.2,0)" /></marker><clipPath
     id="clipPath69-0"><path
       id="path71-2"
       d="m 409.441,126.252 v -43.63 h 147.796 v 43.63" /></clipPath><clipPath
     id="clipPath101-1"><path
       id="path103-6"
       d="m 409.441,126.252 v -43.63 h 147.796 v 43.63" /></clipPath><clipPath
     id="clipPath69"><path
       id="path71"
       d="m 409.441,126.252 v -43.63 h 147.796 v 43.63" /></clipPath><clipPath
     id="clipPath101"><path
       id="path103"
       d="m 409.441,126.252 v -43.63 h 147.796 v 43.63" /></clipPath></defs>
<style
   type="text/css"
   id="style2">
	.st0{fill:none;stroke:#000000;stroke-width:2;stroke-linecap:round;stroke-linejoin:round;stroke-miterlimit:10;}
</style>

<path
   style="fill:none;stroke:#000000;stroke-width:3;stroke-linecap:butt;stroke-linejoin:miter;stroke-opacity:1;stroke-miterlimit:4;stroke-dasharray:none"
   d="m 335.82202,114.99788 c -89.62479,0.58865 -226.96007,56.42152 -225.7627,146.04025 1.22527,91.70731 143.22272,144.06471 234.93431,143.21821 88.59241,-0.81771 224.56766,-53.91679 224.35169,-142.51271 -0.2241,-91.93415 -141.59086,-147.34955 -233.5233,-146.74575 z"
   id="path163" /><path
   style="fill:none;stroke:#000000;stroke-width:3;stroke-linecap:butt;stroke-linejoin:miter;stroke-opacity:1;stroke-miterlimit:4;stroke-dasharray:none"
   d="m 340.76058,123.46399 c -81.88699,0.46261 -208.13827,48.63076 -208.12499,130.51905 0.0135,83.25929 128.39895,133.61105 211.65253,132.63559 81.98223,-0.96057 206.71336,-53.4819 205.30296,-135.45762 -1.4036,-81.58089 -127.23884,-128.15797 -208.8305,-127.69702 z"
   id="path464" /><path
   style="fill:none;stroke:#000000;stroke-width:3;stroke-linecap:butt;stroke-linejoin:miter;stroke-opacity:1;stroke-miterlimit:4;stroke-dasharray:none"
   d="m 225.58633,308.48357 c 3.80652,-2.12717 9.64939,-1.84526 13.0519,0.88189 2.91768,2.33855 6.40129,8.86919 3.17479,10.759 -24.69279,14.46292 0,0 -24.69279,14.46292 -4.2484,2.48835 -11.15211,0.64566 -14.46293,-2.99841 -2.18733,-2.4075 -3.89774,-8.11397 -1.05826,-9.70074 23.98729,-13.40466 0,0 23.98729,-13.40466 z"
   id="path1043" /><path
   style="fill:none;stroke:#000000;stroke-width:3;stroke-linecap:butt;stroke-linejoin:miter;stroke-opacity:1;stroke-miterlimit:4;stroke-dasharray:none"
   d="m 345.69914,114.29237 c -90.69568,-1.80112 -230.84758,52.50638 -231.40677,143.21822 -0.56181,91.13759 139.56232,147.00903 230.70126,146.74575 87.28047,-0.25213 219.17574,-54.53146 220.11864,-141.8072 C 566.06564,174.2043 433.93173,116.04458 345.69914,114.29237 Z"
   id="path1699" /><path
   style="fill:none;stroke:#000000;stroke-width:3;stroke-linecap:butt;stroke-linejoin:miter;stroke-opacity:1;stroke-miterlimit:4;stroke-dasharray:none"
   d="m 352.75423,114.29237 c 163.35498,8.13785 243.43777,106.62494 241.49053,203.72076 -1.41035,70.32489 -45.72556,123.59611 -102.50537,159.61609 -7.76757,4.92759 -15.21491,10.39507 -23.28178,14.81568 -16.60788,9.10105 -33.32378,18.67699 -51.50211,23.98729 -27.32793,7.98311 -56.2242,12.66384 -84.66102,11.28813 -36.18066,-1.75034 -72.55815,-10.36324 -105.82627,-24.69279 -15.73173,-6.77612 -29.66061,-17.43032 -42.86483,-28.34139 -28.5969,-23.63054 -53.66595,-36.48293 -77.77711,-79.60141 -16.570088,-29.63262 -24.367596,-65.61778 -21.870764,-99.47669 3.457535,-46.88677 37.890814,-90.01285 37.890814,-90.01285 0,0 75.47556,-99.04599 230.90791,-91.30282 z"
   id="path1829" /><path
   style="fill:none;fill-rule:evenodd;stroke:#000000;stroke-width:2;stroke-miterlimit:4;stroke-dasharray:none;stroke-opacity:1"
   id="path4233"
   d="m 304.0729,231.76689 a 3.7415235,2.743784 0 0 1 -5.28288,-0.19835 3.7415235,2.743784 0 0 1 0.26745,-3.87422 3.7415235,2.743784 0 0 1 5.28319,0.19392 3.7415235,2.743784 0 0 1 -0.26142,3.87445" /><path
   style="fill:none;fill-rule:evenodd;stroke:#000000;stroke-width:2;stroke-miterlimit:4;stroke-dasharray:none;stroke-opacity:1"
   id="path4459"
   d="m 293.59664,247.23186 a 3.7415235,2.743784 0 0 1 -5.28288,-0.19835 3.7415235,2.743784 0 0 1 0.26745,-3.87423 3.7415235,2.743784 0 0 1 5.28319,0.19392 3.7415235,2.743784 0 0 1 -0.26142,3.87445" /><path
   style="fill:none;fill-rule:evenodd;stroke:#000000;stroke-width:2;stroke-miterlimit:4;stroke-dasharray:none;stroke-opacity:1"
   id="path4560"
   d="m 389.37963,244.7375 a 3.7415235,2.743784 0 0 1 -5.28288,-0.19834 3.7415235,2.743784 0 0 1 0.26745,-3.87423 3.7415235,2.743784 0 0 1 5.28319,0.19392 3.7415235,2.743784 0 0 1 -0.26142,3.87445" /><path
   style="fill:none;fill-rule:evenodd;stroke:#000000;stroke-width:2;stroke-miterlimit:4;stroke-dasharray:none;stroke-opacity:1"
   id="path4562"
   d="m 390.87625,253.71716 a 3.7415235,2.743784 0 0 1 -5.28289,-0.19834 3.7415235,2.743784 0 0 1 0.26746,-3.87423 3.7415235,2.743784 0 0 1 5.28318,0.19392 3.7415235,2.743784 0 0 1 -0.26141,3.87445" /><path
   style="fill:none;fill-rule:evenodd;stroke:#000000;stroke-width:2;stroke-miterlimit:4;stroke-dasharray:none;stroke-opacity:1"
   id="path4564"
   d="m 296.09097,238.2522 a 3.7415235,2.743784 0 0 1 -5.28288,-0.19835 3.7415235,2.743784 0 0 1 0.26745,-3.87423 3.7415235,2.743784 0 0 1 5.28319,0.19392 3.7415235,2.743784 0 0 1 -0.26142,3.87445" /><path
   style="fill:none;fill-rule:evenodd;stroke:#000000;stroke-width:2;stroke-miterlimit:4;stroke-dasharray:none;stroke-opacity:1"
   id="path4566"
   d="m 313.05255,225.28158 a 3.7415235,2.743784 0 0 1 -5.28289,-0.19834 3.7415235,2.743784 0 0 1 0.26746,-3.87423 3.7415235,2.743784 0 0 1 5.28318,0.19392 3.7415235,2.743784 0 0 1 -0.26141,3.87445" /><path
   style="fill:none;fill-rule:evenodd;stroke:#000000;stroke-width:2;stroke-miterlimit:4;stroke-dasharray:none;stroke-opacity:1"
   id="path4568"
   d="m 327.0209,221.78949 a 3.7415235,2.743784 0 0 1 -5.28288,-0.19835 3.7415235,2.743784 0 0 1 0.26745,-3.87422 3.7415235,2.743784 0 0 1 5.28319,0.19392 3.7415235,2.743784 0 0 1 -0.26142,3.87444" /><path
   style="fill:none;fill-rule:evenodd;stroke:#000000;stroke-width:2;stroke-miterlimit:4;stroke-dasharray:none;stroke-opacity:1"
   id="path4570"
   d="m 338.99377,220.79175 a 3.7415235,2.743784 0 0 1 -5.28288,-0.19835 3.7415235,2.743784 0 0 1 0.26745,-3.87423 3.7415235,2.743784 0 0 1 5.28319,0.19392 3.7415235,2.743784 0 0 1 -0.26142,3.87445" /><path
   style="fill:none;fill-rule:evenodd;stroke:#000000;stroke-width:2;stroke-miterlimit:4;stroke-dasharray:none;stroke-opacity:1"
   id="path4572"
   d="m 352.96212,221.78949 a 3.7415235,2.743784 0 0 1 -5.28288,-0.19835 3.7415235,2.743784 0 0 1 0.26745,-3.87422 3.7415235,2.743784 0 0 1 5.28319,0.19392 3.7415235,2.743784 0 0 1 -0.26142,3.87444" /><path
   style="fill:none;fill-rule:evenodd;stroke:#000000;stroke-width:2;stroke-miterlimit:4;stroke-dasharray:none;stroke-opacity:1"
   id="path4574"
   d="m 366.43161,224.78271 a 3.7415235,2.743784 0 0 1 -5.28289,-0.19834 3.7415235,2.743784 0 0 1 0.26745,-3.87423 3.7415235,2.743784 0 0 1 5.28319,0.19392 3.7415235,2.743784 0 0 1 -0.26141,3.87445" /><path
   style="fill:none;fill-rule:evenodd;stroke:#000000;stroke-width:2;stroke-miterlimit:4;stroke-dasharray:none;stroke-opacity:1"
   id="path4576"
   d="m 377.9056,228.77366 a 3.7415235,2.743784 0 0 1 -5.28288,-0.19834 3.7415235,2.743784 0 0 1 0.26745,-3.87423 3.7415235,2.743784 0 0 1 5.28319,0.19392 3.7415235,2.743784 0 0 1 -0.26142,3.87445" /><path
   style="fill:none;fill-rule:evenodd;stroke:#000000;stroke-width:2;stroke-miterlimit:4;stroke-dasharray:none;stroke-opacity:1"
   id="path4578"
   d="m 384.8898,235.75784 a 3.7415235,2.743784 0 0 1 -5.28289,-0.19834 3.7415235,2.743784 0 0 1 0.26746,-3.87423 3.7415235,2.743784 0 0 1 5.28318,0.19392 3.7415235,2.743784 0 0 1 -0.26141,3.87445" /><path
   style="fill:none;fill-rule:evenodd;stroke:#000000;stroke-width:2;stroke-miterlimit:4;stroke-dasharray:none;stroke-opacity:1"
   id="path4580"
   d="m 388.38189,262.69682 a 3.7415235,2.743784 0 0 1 -5.28288,-0.19834 3.7415235,2.743784 0 0 1 0.26745,-3.87423 3.7415235,2.743784 0 0 1 5.28319,0.19392 3.7415235,2.743784 0 0 1 -0.26142,3.87445" /><path
   style="fill:none;fill-rule:evenodd;stroke:#000000;stroke-width:2;stroke-miterlimit:4;stroke-dasharray:none;stroke-opacity:1"
   id="path4582"
   d="m 381.3977,270.67872 a 3.7415235,2.743784 0 0 1 -5.28288,-0.19834 3.7415235,2.743784 0 0 1 0.26745,-3.87423 3.7415235,2.743784 0 0 1 5.28319,0.19392 3.7415235,2.743784 0 0 1 -0.26142,3.87445" /><path
   style="fill:none;fill-rule:evenodd;stroke:#000000;stroke-width:2;stroke-miterlimit:4;stroke-dasharray:none;stroke-opacity:1"
   id="path4584"
   d="m 371.42031,277.16405 a 3.7415235,2.743784 0 0 1 -5.28288,-0.19835 3.7415235,2.743784 0 0 1 0.26745,-3.87423 3.7415235,2.743784 0 0 1 5.28319,0.19392 3.7415235,2.743784 0 0 1 -0.26142,3.87445" /><path
   style="fill:none;fill-rule:evenodd;stroke:#000000;stroke-width:2;stroke-miterlimit:4;stroke-dasharray:none;stroke-opacity:1"
   id="path4586"
   d="m 359.44744,280.15727 a 3.7415235,2.743784 0 0 1 -5.28288,-0.19834 3.7415235,2.743784 0 0 1 0.26745,-3.87423 3.7415235,2.743784 0 0 1 5.28319,0.19392 3.7415235,2.743784 0 0 1 -0.26142,3.87445" /><path
   style="fill:none;fill-rule:evenodd;stroke:#000000;stroke-width:2;stroke-miterlimit:4;stroke-dasharray:none;stroke-opacity:1"
   id="path4588"
   d="m 346.9757,282.15275 a 3.7415235,2.743784 0 0 1 -5.28288,-0.19834 3.7415235,2.743784 0 0 1 0.26745,-3.87423 3.7415235,2.743784 0 0 1 5.28319,0.19392 3.7415235,2.743784 0 0 1 -0.26142,3.87445" /><path
   style="fill:none;fill-rule:evenodd;stroke:#000000;stroke-width:2;stroke-miterlimit:4;stroke-dasharray:none;stroke-opacity:1"
   id="path4590"
   d="m 333.00735,281.65388 a 3.7415235,2.743784 0 0 1 -5.28288,-0.19834 3.7415235,2.743784 0 0 1 0.26745,-3.87423 3.7415235,2.743784 0 0 1 5.28319,0.19392 3.7415235,2.743784 0 0 1 -0.26142,3.87445" /><path
   style="fill:none;fill-rule:evenodd;stroke:#000000;stroke-width:2;stroke-miterlimit:4;stroke-dasharray:none;stroke-opacity:1"
   id="path4592"
   d="m 319.039,279.6584 a 3.7415235,2.743784 0 0 1 -5.28289,-0.19835 3.7415235,2.743784 0 0 1 0.26746,-3.87422 3.7415235,2.743784 0 0 1 5.28318,0.19392 3.7415235,2.743784 0 0 1 -0.26141,3.87445" /><path
   style="fill:none;fill-rule:evenodd;stroke:#000000;stroke-width:2;stroke-miterlimit:4;stroke-dasharray:none;stroke-opacity:1"
   id="path4594"
   d="m 307.06613,273.67195 a 3.7415235,2.743784 0 0 1 -5.28289,-0.19835 3.7415235,2.743784 0 0 1 0.26746,-3.87422 3.7415235,2.743784 0 0 1 5.28318,0.19392 3.7415235,2.743784 0 0 1 -0.26141,3.87445" /><path
   style="fill:none;fill-rule:evenodd;stroke:#000000;stroke-width:2;stroke-miterlimit:4;stroke-dasharray:none;stroke-opacity:1"
   id="path4596"
   d="m 298.08648,266.68776 a 3.7415235,2.743784 0 0 1 -5.28288,-0.19835 3.7415235,2.743784 0 0 1 0.26745,-3.87422 3.7415235,2.743784 0 0 1 5.28319,0.19391 3.7415235,2.743784 0 0 1 -0.26142,3.87445" /><path
   style="fill:none;fill-rule:evenodd;stroke:#000000;stroke-width:2;stroke-miterlimit:4;stroke-dasharray:none;stroke-opacity:1"
   id="path4598"
   d="m 293.09777,257.20923 a 3.7415235,2.743784 0 0 1 -5.28288,-0.19835 3.7415235,2.743784 0 0 1 0.26745,-3.87423 3.7415235,2.743784 0 0 1 5.28319,0.19392 3.7415235,2.743784 0 0 1 -0.26142,3.87445" /><path
   style="fill:none;fill-rule:evenodd;stroke:#000000;stroke-width:2;stroke-miterlimit:4;stroke-dasharray:none;stroke-opacity:1"
   id="path4619"
   d="m 383.89208,280.65614 a 3.7415235,2.743784 0 0 1 -5.28288,-0.19834 3.7415235,2.743784 0 0 1 0.26745,-3.87423 3.7415235,2.743784 0 0 1 5.28319,0.19392 3.7415235,2.743784 0 0 1 -0.26141,3.87445" /><path
   style="fill:none;fill-rule:evenodd;stroke:#000000;stroke-width:2;stroke-miterlimit:4;stroke-dasharray:none;stroke-opacity:1"
   id="path4621"
   d="m 354.95764,289.63579 a 3.7415235,2.743784 0 0 1 -5.28289,-0.19835 3.7415235,2.743784 0 0 1 0.26746,-3.87423 3.7415235,2.743784 0 0 1 5.28318,0.19392 3.7415235,2.743784 0 0 1 -0.26141,3.87445" /><path
   style="fill:none;fill-rule:evenodd;stroke:#000000;stroke-width:2;stroke-miterlimit:4;stroke-dasharray:none;stroke-opacity:1"
   id="path4623"
   d="m 362.44064,214.80531 a 3.7415235,2.743784 0 0 1 -5.28288,-0.19834 3.7415235,2.743784 0 0 1 0.26745,-3.87423 3.7415235,2.743784 0 0 1 5.28319,0.19392 3.7415235,2.743784 0 0 1 -0.26142,3.87445" /><path
   style="fill:none;fill-rule:evenodd;stroke:#000000;stroke-width:2;stroke-miterlimit:4;stroke-dasharray:none;stroke-opacity:1"
   id="path4625"
   d="m 345.97796,213.3087 a 3.7415235,2.743784 0 0 1 -5.28288,-0.19835 3.7415235,2.743784 0 0 1 0.26745,-3.87422 3.7415235,2.743784 0 0 1 5.28319,0.19392 3.7415235,2.743784 0 0 1 -0.26142,3.87444" /><path
   style="fill:none;fill-rule:evenodd;stroke:#000000;stroke-width:2;stroke-miterlimit:4;stroke-dasharray:none;stroke-opacity:1"
   id="path4627"
   d="m 395.86492,270.67872 a 3.7415235,2.743784 0 0 1 -5.28288,-0.19834 3.7415235,2.743784 0 0 1 0.26745,-3.87423 3.7415235,2.743784 0 0 1 5.28319,0.19392 3.7415235,2.743784 0 0 1 -0.26142,3.87445" /><path
   style="fill:none;fill-rule:evenodd;stroke:#000000;stroke-width:2;stroke-miterlimit:4;stroke-dasharray:none;stroke-opacity:1"
   id="path4629"
   d="m 401.85137,260.70134 a 3.7415235,2.743784 0 0 1 -5.28288,-0.19835 3.7415235,2.743784 0 0 1 0.26745,-3.87422 3.7415235,2.743784 0 0 1 5.28319,0.19392 3.7415235,2.743784 0 0 1 -0.26141,3.87444" /><path
   style="fill:none;fill-rule:evenodd;stroke:#000000;stroke-width:2;stroke-miterlimit:4;stroke-dasharray:none;stroke-opacity:1"
   id="path4631"
   d="m 402.84912,247.73071 a 3.7415235,2.743784 0 0 1 -5.28289,-0.19834 3.7415235,2.743784 0 0 1 0.26746,-3.87423 3.7415235,2.743784 0 0 1 5.28318,0.19392 3.7415235,2.743784 0 0 1 -0.26141,3.87445" /><path
   style="fill:none;fill-rule:evenodd;stroke:#000000;stroke-width:2;stroke-miterlimit:4;stroke-dasharray:none;stroke-opacity:1"
   id="path4633"
   d="m 398.35928,237.25444 a 3.7415235,2.743784 0 0 1 -5.28288,-0.19835 3.7415235,2.743784 0 0 1 0.26745,-3.87422 3.7415235,2.743784 0 0 1 5.28319,0.19392 3.7415235,2.743784 0 0 1 -0.26142,3.87444" /><path
   style="fill:none;fill-rule:evenodd;stroke:#000000;stroke-width:2;stroke-miterlimit:4;stroke-dasharray:none;stroke-opacity:1"
   id="path4635"
   d="m 289.60568,230.27026 a 3.7415235,2.743784 0 0 1 -5.28289,-0.19834 3.7415235,2.743784 0 0 1 0.26746,-3.87423 3.7415235,2.743784 0 0 1 5.28319,0.19392 3.7415235,2.743784 0 0 1 -0.26142,3.87445" /><path
   style="fill:none;fill-rule:evenodd;stroke:#000000;stroke-width:2;stroke-miterlimit:4;stroke-dasharray:none;stroke-opacity:1"
   id="path4637"
   d="m 300.58081,222.28836 a 3.7415235,2.743784 0 0 1 -5.28289,-0.19835 3.7415235,2.743784 0 0 1 0.26746,-3.87422 3.7415235,2.743784 0 0 1 5.28318,0.19392 3.7415235,2.743784 0 0 1 -0.26141,3.87444" /><path
   style="fill:none;fill-rule:evenodd;stroke:#000000;stroke-width:2;stroke-miterlimit:4;stroke-dasharray:none;stroke-opacity:1"
   id="path4639"
   d="m 315.048,215.30418 a 3.7415235,2.743784 0 0 1 -5.28288,-0.19834 3.7415235,2.743784 0 0 1 0.26745,-3.87423 3.7415235,2.743784 0 0 1 5.28319,0.19392 3.7415235,2.743784 0 0 1 -0.26142,3.87445" /><path
   style="fill:none;fill-rule:evenodd;stroke:#000000;stroke-width:2;stroke-miterlimit:4;stroke-dasharray:none;stroke-opacity:1"
   id="path4641"
   d="m 329.01638,212.31096 a 3.7415235,2.743784 0 0 1 -5.28288,-0.19835 3.7415235,2.743784 0 0 1 0.26745,-3.87422 3.7415235,2.743784 0 0 1 5.28319,0.19391 3.7415235,2.743784 0 0 1 -0.26142,3.87445" /><path
   style="fill:none;fill-rule:evenodd;stroke:#000000;stroke-width:2;stroke-miterlimit:4;stroke-dasharray:none;stroke-opacity:1"
   id="path4643"
   d="m 390.87622,228.77368 a 3.7415235,2.743784 0 0 1 -5.28289,-0.19835 3.7415235,2.743784 0 0 1 0.26746,-3.87422 3.7415235,2.743784 0 0 1 5.28318,0.19392 3.7415235,2.743784 0 0 1 -0.26141,3.87445" /><path
   style="fill:none;fill-rule:evenodd;stroke:#000000;stroke-width:2;stroke-miterlimit:4;stroke-dasharray:none;stroke-opacity:1"
   id="path4645"
   d="m 379.90106,219.794 a 3.7415235,2.743784 0 0 1 -5.28289,-0.19834 3.7415235,2.743784 0 0 1 0.26746,-3.87423 3.7415235,2.743784 0 0 1 5.28319,0.19392 3.7415235,2.743784 0 0 1 -0.26142,3.87445" /><path
   style="fill:none;fill-rule:evenodd;stroke:#000000;stroke-width:2;stroke-miterlimit:4;stroke-dasharray:none;stroke-opacity:1"
   id="path4647"
   d="m 281.62374,242.24316 a 3.7415235,2.743784 0 0 1 -5.28288,-0.19834 3.7415235,2.743784 0 0 1 0.26745,-3.87423 3.7415235,2.743784 0 0 1 5.28319,0.19392 3.7415235,2.743784 0 0 1 -0.26142,3.87445" /><path
   style="fill:none;fill-rule:evenodd;stroke:#000000;stroke-width:2;stroke-miterlimit:4;stroke-dasharray:none;stroke-opacity:1"
   id="path4649"
   d="m 281.12487,253.21831 a 3.7415235,2.743784 0 0 1 -5.28288,-0.19835 3.7415235,2.743784 0 0 1 0.26745,-3.87423 3.7415235,2.743784 0 0 1 5.28319,0.19392 3.7415235,2.743784 0 0 1 -0.26142,3.87445" /><path
   style="fill:none;fill-rule:evenodd;stroke:#000000;stroke-width:2;stroke-miterlimit:4;stroke-dasharray:none;stroke-opacity:1"
   id="path4651"
   d="m 283.61926,264.6923 a 3.7415235,2.743784 0 0 1 -5.28289,-0.19834 3.7415235,2.743784 0 0 1 0.26746,-3.87423 3.7415235,2.743784 0 0 1 5.28319,0.19392 3.7415235,2.743784 0 0 1 -0.26142,3.87445" /><path
   style="fill:none;fill-rule:evenodd;stroke:#000000;stroke-width:2;stroke-miterlimit:4;stroke-dasharray:none;stroke-opacity:1"
   id="path4653"
   d="m 292.5989,274.66972 a 3.7415235,2.743784 0 0 1 -5.28288,-0.19834 3.7415235,2.743784 0 0 1 0.26745,-3.87423 3.7415235,2.743784 0 0 1 5.28319,0.19392 3.7415235,2.743784 0 0 1 -0.26142,3.87445" /><path
   style="fill:none;fill-rule:evenodd;stroke:#000000;stroke-width:2;stroke-miterlimit:4;stroke-dasharray:none;stroke-opacity:1"
   id="path4655"
   d="m 306.56726,283.1505 a 3.7415235,2.743784 0 0 1 -5.28289,-0.19835 3.7415235,2.743784 0 0 1 0.26746,-3.87423 3.7415235,2.743784 0 0 1 5.28318,0.19392 3.7415235,2.743784 0 0 1 -0.26141,3.87445" /><path
   style="fill:none;fill-rule:evenodd;stroke:#000000;stroke-width:2;stroke-miterlimit:4;stroke-dasharray:none;stroke-opacity:1"
   id="path4657"
   d="m 322.03222,288.13917 a 3.7415235,2.743784 0 0 1 -5.28288,-0.19834 3.7415235,2.743784 0 0 1 0.26745,-3.87423 3.7415235,2.743784 0 0 1 5.28319,0.19392 3.7415235,2.743784 0 0 1 -0.26142,3.87445" /><path
   style="fill:none;fill-rule:evenodd;stroke:#000000;stroke-width:2;stroke-miterlimit:4;stroke-dasharray:none;stroke-opacity:1"
   id="path4659"
   d="m 337.49722,291.1324 a 3.7415235,2.743784 0 0 1 -5.28288,-0.19835 3.7415235,2.743784 0 0 1 0.26745,-3.87422 3.7415235,2.743784 0 0 1 5.28319,0.19392 3.7415235,2.743784 0 0 1 -0.26142,3.87444" /><path
   style="fill:none;fill-rule:evenodd;stroke:#000000;stroke-width:2;stroke-miterlimit:4;stroke-dasharray:none;stroke-opacity:1"
   id="path4661"
   d="m 370.4226,286.64253 a 3.7415235,2.743784 0 0 1 -5.28288,-0.19834 3.7415235,2.743784 0 0 1 0.26745,-3.87423 3.7415235,2.743784 0 0 1 5.28319,0.19392 3.7415235,2.743784 0 0 1 -0.26142,3.87445" /><path
   style="fill:none;fill-rule:evenodd;stroke:#000000;stroke-width:2;stroke-miterlimit:4;stroke-dasharray:none;stroke-opacity:1"
   id="path4764"
   d="m 409.33444,209.31775 a 3.7415235,2.743784 0 0 1 -5.28289,-0.19835 3.7415235,2.743784 0 0 1 0.26746,-3.87422 3.7415235,2.743784 0 0 1 5.28319,0.19391 3.7415235,2.743784 0 0 1 -0.26142,3.87445" /><path
   style="fill:none;fill-rule:evenodd;stroke:#000000;stroke-width:2;stroke-miterlimit:4;stroke-dasharray:none;stroke-opacity:1"
   id="path4766"
   d="m 442.75872,229.27254 a 3.7415235,2.743784 0 0 1 -5.28288,-0.19835 3.7415235,2.743784 0 0 1 0.26745,-3.87423 3.7415235,2.743784 0 0 1 5.28319,0.19392 3.7415235,2.743784 0 0 1 -0.26142,3.87445" /><path
   style="fill:none;fill-rule:evenodd;stroke:#000000;stroke-width:2;stroke-miterlimit:4;stroke-dasharray:none;stroke-opacity:1"
   id="path4768"
   d="m 431.78359,273.67195 a 3.7415235,2.743784 0 0 1 -5.28288,-0.19835 3.7415235,2.743784 0 0 1 0.26745,-3.87422 3.7415235,2.743784 0 0 1 5.28319,0.19392 3.7415235,2.743784 0 0 1 -0.26141,3.87445" /><path
   style="fill:none;fill-rule:evenodd;stroke:#000000;stroke-width:2;stroke-miterlimit:4;stroke-dasharray:none;stroke-opacity:1"
   id="path4770"
   d="m 415.81973,278.16176 a 3.7415235,2.743784 0 0 1 -5.28289,-0.19835 3.7415235,2.743784 0 0 1 0.26746,-3.87423 3.7415235,2.743784 0 0 1 5.28319,0.19392 3.7415235,2.743784 0 0 1 -0.26142,3.87445" /><path
   style="fill:none;fill-rule:evenodd;stroke:#000000;stroke-width:2;stroke-miterlimit:4;stroke-dasharray:none;stroke-opacity:1"
   id="path4772"
   d="m 405.84231,229.77139 a 3.7415235,2.743784 0 0 1 -5.28288,-0.19834 3.7415235,2.743784 0 0 1 0.26745,-3.87423 3.7415235,2.743784 0 0 1 5.28319,0.19392 3.7415235,2.743784 0 0 1 -0.26142,3.87445" /><path
   style="fill:none;fill-rule:evenodd;stroke:#000000;stroke-width:2;stroke-miterlimit:4;stroke-dasharray:none;stroke-opacity:1"
   id="path4774"
   d="m 391.87399,209.8166 a 3.7415235,2.743784 0 0 1 -5.28288,-0.19834 3.7415235,2.743784 0 0 1 0.26745,-3.87423 3.7415235,2.743784 0 0 1 5.28319,0.19392 3.7415235,2.743784 0 0 1 -0.26142,3.87445" /><path
   style="fill:none;fill-rule:evenodd;stroke:#000000;stroke-width:2;stroke-miterlimit:4;stroke-dasharray:none;stroke-opacity:1"
   id="path4776"
   d="m 406.84008,198.84146 a 3.7415235,2.743784 0 0 1 -5.28288,-0.19835 3.7415235,2.743784 0 0 1 0.26745,-3.87422 3.7415235,2.743784 0 0 1 5.28319,0.19392 3.7415235,2.743784 0 0 1 -0.26142,3.87444" /><path
   style="fill:none;fill-rule:evenodd;stroke:#000000;stroke-width:2;stroke-miterlimit:4;stroke-dasharray:none;stroke-opacity:1"
   id="path4778"
   d="m 388.38189,199.34033 a 3.7415235,2.743784 0 0 1 -5.28288,-0.19834 3.7415235,2.743784 0 0 1 0.26745,-3.87423 3.7415235,2.743784 0 0 1 5.28319,0.19392 3.7415235,2.743784 0 0 1 -0.26142,3.87445" /><path
   style="fill:none;fill-rule:evenodd;stroke:#000000;stroke-width:2;stroke-miterlimit:4;stroke-dasharray:none;stroke-opacity:1"
   id="path4780"
   d="m 425.79711,223.28608 a 3.7415235,2.743784 0 0 1 -5.28288,-0.19834 3.7415235,2.743784 0 0 1 0.26745,-3.87423 3.7415235,2.743784 0 0 1 5.28319,0.19392 3.7415235,2.743784 0 0 1 -0.26142,3.87445" /><path
   style="fill:none;fill-rule:evenodd;stroke:#000000;stroke-width:2;stroke-miterlimit:4;stroke-dasharray:none;stroke-opacity:1"
   id="path4782"
   d="m 419.81066,233.76236 a 3.7415235,2.743784 0 0 1 -5.28288,-0.19835 3.7415235,2.743784 0 0 1 0.26745,-3.87422 3.7415235,2.743784 0 0 1 5.28319,0.19392 3.7415235,2.743784 0 0 1 -0.26142,3.87444" /><path
   style="fill:none;fill-rule:evenodd;stroke:#000000;stroke-width:2;stroke-miterlimit:4;stroke-dasharray:none;stroke-opacity:1"
   id="path4784"
   d="m 412.8265,241.2454 a 3.7415235,2.743784 0 0 1 -5.28288,-0.19834 3.7415235,2.743784 0 0 1 0.26745,-3.87423 3.7415235,2.743784 0 0 1 5.28319,0.19392 3.7415235,2.743784 0 0 1 -0.26142,3.87445" /><path
   style="fill:none;fill-rule:evenodd;stroke:#000000;stroke-width:2;stroke-miterlimit:4;stroke-dasharray:none;stroke-opacity:1"
   id="path4786"
   d="m 447.24853,267.6855 a 3.7415235,2.743784 0 0 1 -5.28288,-0.19835 3.7415235,2.743784 0 0 1 0.26745,-3.87422 3.7415235,2.743784 0 0 1 5.28319,0.19392 3.7415235,2.743784 0 0 1 -0.26142,3.87444" /><path
   style="fill:none;fill-rule:evenodd;stroke:#000000;stroke-width:2;stroke-miterlimit:4;stroke-dasharray:none;stroke-opacity:1"
   id="path4788"
   d="m 434.77682,284.14824 a 3.7415235,2.743784 0 0 1 -5.28288,-0.19835 3.7415235,2.743784 0 0 1 0.26745,-3.87422 3.7415235,2.743784 0 0 1 5.28319,0.19391 3.7415235,2.743784 0 0 1 -0.26142,3.87445" /><path
   style="fill:none;fill-rule:evenodd;stroke:#000000;stroke-width:2;stroke-miterlimit:4;stroke-dasharray:none;stroke-opacity:1"
   id="path4790"
   d="m 416.3186,300.61091 a 3.7415235,2.743784 0 0 1 -5.28288,-0.19834 3.7415235,2.743784 0 0 1 0.26745,-3.87423 3.7415235,2.743784 0 0 1 5.28319,0.19392 3.7415235,2.743784 0 0 1 -0.26142,3.87445" /><path
   style="fill:none;fill-rule:evenodd;stroke:#000000;stroke-width:2;stroke-miterlimit:4;stroke-dasharray:none;stroke-opacity:1"
   id="path4792"
   d="m 380.89883,299.61317 a 3.7415235,2.743784 0 0 1 -5.28288,-0.19834 3.7415235,2.743784 0 0 1 0.26745,-3.87423 3.7415235,2.743784 0 0 1 5.28319,0.19392 3.7415235,2.743784 0 0 1 -0.26142,3.87445" /><path
   style="fill:none;fill-rule:evenodd;stroke:#000000;stroke-width:2;stroke-miterlimit:4;stroke-dasharray:none;stroke-opacity:1"
   id="path4794"
   d="m 336.00057,304.60188 a 3.7415235,2.743784 0 0 1 -5.28288,-0.19834 3.7415235,2.743784 0 0 1 0.26745,-3.87423 3.7415235,2.743784 0 0 1 5.28319,0.19392 3.7415235,2.743784 0 0 1 -0.26141,3.87445" /><path
   style="fill:none;fill-rule:evenodd;stroke:#000000;stroke-width:2;stroke-miterlimit:4;stroke-dasharray:none;stroke-opacity:1"
   id="path4796"
   d="m 347.47457,312.58381 a 3.7415235,2.743784 0 0 1 -5.28288,-0.19834 3.7415235,2.743784 0 0 1 0.26745,-3.87423 3.7415235,2.743784 0 0 1 5.28319,0.19392 3.7415235,2.743784 0 0 1 -0.26142,3.87445" /><path
   style="fill:none;fill-rule:evenodd;stroke:#000000;stroke-width:2;stroke-miterlimit:4;stroke-dasharray:none;stroke-opacity:1"
   id="path4798"
   d="m 346.9757,296.61998 a 3.7415235,2.743784 0 0 1 -5.28288,-0.19835 3.7415235,2.743784 0 0 1 0.26745,-3.87422 3.7415235,2.743784 0 0 1 5.28319,0.19392 3.7415235,2.743784 0 0 1 -0.26142,3.87444" /><path
   style="fill:none;fill-rule:evenodd;stroke:#000000;stroke-width:2;stroke-miterlimit:4;stroke-dasharray:none;stroke-opacity:1"
   id="path4800"
   d="m 392.37286,312.58381 a 3.7415235,2.743784 0 0 1 -5.28288,-0.19834 3.7415235,2.743784 0 0 1 0.26745,-3.87423 3.7415235,2.743784 0 0 1 5.28319,0.19392 3.7415235,2.743784 0 0 1 -0.26142,3.87445" /><path
   style="fill:none;fill-rule:evenodd;stroke:#000000;stroke-width:2;stroke-miterlimit:4;stroke-dasharray:none;stroke-opacity:1"
   id="path4802"
   d="m 358.4497,303.10527 a 3.7415235,2.743784 0 0 1 -5.28288,-0.19835 3.7415235,2.743784 0 0 1 0.26745,-3.87422 3.7415235,2.743784 0 0 1 5.28319,0.19392 3.7415235,2.743784 0 0 1 -0.26142,3.87444" /><path
   style="fill:none;fill-rule:evenodd;stroke:#000000;stroke-width:2;stroke-miterlimit:4;stroke-dasharray:none;stroke-opacity:1"
   id="path4804"
   d="m 449.24404,247.73071 a 3.7415235,2.743784 0 0 1 -5.28288,-0.19834 3.7415235,2.743784 0 0 1 0.26745,-3.87423 3.7415235,2.743784 0 0 1 5.28319,0.19392 3.7415235,2.743784 0 0 1 -0.26142,3.87445" /><path
   style="fill:none;fill-rule:evenodd;stroke:#000000;stroke-width:2;stroke-miterlimit:4;stroke-dasharray:none;stroke-opacity:1"
   id="path4806"
   d="m 425.79714,248.22955 a 3.7415235,2.743784 0 0 1 -5.28288,-0.19834 3.7415235,2.743784 0 0 1 0.26745,-3.87423 3.7415235,2.743784 0 0 1 5.28319,0.19392 3.7415235,2.743784 0 0 1 -0.26141,3.87445" /><path
   style="fill:none;fill-rule:evenodd;stroke:#000000;stroke-width:2;stroke-miterlimit:4;stroke-dasharray:none;stroke-opacity:1"
   id="path4808"
   d="m 385.38873,290.13466 a 3.7415235,2.743784 0 0 1 -5.28288,-0.19835 3.7415235,2.743784 0 0 1 0.26745,-3.87422 3.7415235,2.743784 0 0 1 5.28319,0.19391 3.7415235,2.743784 0 0 1 -0.26142,3.87445" /><path
   style="fill:none;fill-rule:evenodd;stroke:#000000;stroke-width:2;stroke-miterlimit:4;stroke-dasharray:none;stroke-opacity:1"
   id="path4810"
   d="m 366.93051,295.62224 a 3.7415235,2.743784 0 0 1 -5.28289,-0.19835 3.7415235,2.743784 0 0 1 0.26746,-3.87423 3.7415235,2.743784 0 0 1 5.28318,0.19392 3.7415235,2.743784 0 0 1 -0.26141,3.87445" /><path
   style="fill:none;fill-rule:evenodd;stroke:#000000;stroke-width:2;stroke-miterlimit:4;stroke-dasharray:none;stroke-opacity:1"
   id="path4812"
   d="m 365.93273,194.85052 a 3.7415235,2.743784 0 0 1 -5.28288,-0.19834 3.7415235,2.743784 0 0 1 0.26745,-3.87423 3.7415235,2.743784 0 0 1 5.28319,0.19392 3.7415235,2.743784 0 0 1 -0.26142,3.87445" /><path
   style="fill:none;fill-rule:evenodd;stroke:#000000;stroke-width:2;stroke-miterlimit:4;stroke-dasharray:none;stroke-opacity:1"
   id="path4814"
   d="m 372.41806,203.3313 a 3.7415235,2.743784 0 0 1 -5.28289,-0.19835 3.7415235,2.743784 0 0 1 0.26746,-3.87422 3.7415235,2.743784 0 0 1 5.28318,0.19391 3.7415235,2.743784 0 0 1 -0.26141,3.87445" /><path
   style="fill:none;fill-rule:evenodd;stroke:#000000;stroke-width:2;stroke-miterlimit:4;stroke-dasharray:none;stroke-opacity:1"
   id="path4816"
   d="m 401.85141,290.63353 a 3.7415235,2.743784 0 0 1 -5.28289,-0.19835 3.7415235,2.743784 0 0 1 0.26745,-3.87422 3.7415235,2.743784 0 0 1 5.28319,0.19392 3.7415235,2.743784 0 0 1 -0.26141,3.87444" /><path
   style="fill:none;fill-rule:evenodd;stroke:#000000;stroke-width:2;stroke-miterlimit:4;stroke-dasharray:none;stroke-opacity:1"
   id="path4818"
   d="m 418.31411,289.13691 a 3.7415235,2.743784 0 0 1 -5.28288,-0.19834 3.7415235,2.743784 0 0 1 0.26745,-3.87423 3.7415235,2.743784 0 0 1 5.28319,0.19392 3.7415235,2.743784 0 0 1 -0.26142,3.87445" /><path
   style="fill:none;fill-rule:evenodd;stroke:#000000;stroke-width:2;stroke-miterlimit:4;stroke-dasharray:none;stroke-opacity:1"
   id="path4820"
   d="m 399.35705,281.15498 a 3.7415235,2.743784 0 0 1 -5.28288,-0.19834 3.7415235,2.743784 0 0 1 0.26745,-3.87423 3.7415235,2.743784 0 0 1 5.28319,0.19392 3.7415235,2.743784 0 0 1 -0.26142,3.87445" /><path
   style="fill:none;fill-rule:evenodd;stroke:#000000;stroke-width:2;stroke-miterlimit:4;stroke-dasharray:none;stroke-opacity:1"
   id="path4822"
   d="m 410.83102,268.68324 a 3.7415235,2.743784 0 0 1 -5.28288,-0.19834 3.7415235,2.743784 0 0 1 0.26745,-3.87423 3.7415235,2.743784 0 0 1 5.28319,0.19392 3.7415235,2.743784 0 0 1 -0.26142,3.87445" /><path
   style="fill:none;fill-rule:evenodd;stroke:#000000;stroke-width:2;stroke-miterlimit:4;stroke-dasharray:none;stroke-opacity:1"
   id="path4824"
   d="m 409.33444,220.79172 a 3.7415235,2.743784 0 0 1 -5.28289,-0.19835 3.7415235,2.743784 0 0 1 0.26746,-3.87423 3.7415235,2.743784 0 0 1 5.28319,0.19392 3.7415235,2.743784 0 0 1 -0.26142,3.87445" /><path
   style="fill:none;fill-rule:evenodd;stroke:#000000;stroke-width:2;stroke-miterlimit:4;stroke-dasharray:none;stroke-opacity:1"
   id="path4826"
   d="m 392.37286,218.79626 a 3.7415235,2.743784 0 0 1 -5.28288,-0.19834 3.7415235,2.743784 0 0 1 0.26745,-3.87423 3.7415235,2.743784 0 0 1 5.28319,0.19392 3.7415235,2.743784 0 0 1 -0.26142,3.87445" /><path
   style="fill:none;fill-rule:evenodd;stroke:#000000;stroke-width:2;stroke-miterlimit:4;stroke-dasharray:none;stroke-opacity:1"
   id="path4828"
   d="m 376.40899,210.81436 a 3.7415235,2.743784 0 0 1 -5.28288,-0.19835 3.7415235,2.743784 0 0 1 0.26745,-3.87422 3.7415235,2.743784 0 0 1 5.28319,0.19392 3.7415235,2.743784 0 0 1 -0.26142,3.87445" /><path
   style="fill:none;fill-rule:evenodd;stroke:#000000;stroke-width:2;stroke-miterlimit:4;stroke-dasharray:none;stroke-opacity:1"
   id="path4830"
   d="m 358.4497,206.32452 a 3.7415235,2.743784 0 0 1 -5.28288,-0.19834 3.7415235,2.743784 0 0 1 0.26745,-3.87423 3.7415235,2.743784 0 0 1 5.28319,0.19392 3.7415235,2.743784 0 0 1 -0.26142,3.87445" /><path
   style="fill:none;fill-rule:evenodd;stroke:#000000;stroke-width:2;stroke-miterlimit:4;stroke-dasharray:none;stroke-opacity:1"
   id="path4832"
   d="m 424.7994,264.19343 a 3.7415235,2.743784 0 0 1 -5.28288,-0.19834 3.7415235,2.743784 0 0 1 0.26745,-3.87423 3.7415235,2.743784 0 0 1 5.28319,0.19392 3.7415235,2.743784 0 0 1 -0.26142,3.87445" /><path
   style="fill:none;fill-rule:evenodd;stroke:#000000;stroke-width:2;stroke-miterlimit:4;stroke-dasharray:none;stroke-opacity:1"
   id="path4834"
   d="m 380.8988,189.8618 a 3.7415235,2.743784 0 0 1 -5.28288,-0.19835 3.7415235,2.743784 0 0 1 0.26745,-3.87422 3.7415235,2.743784 0 0 1 5.28319,0.19392 3.7415235,2.743784 0 0 1 -0.26142,3.87444" /><path
   style="fill:none;fill-rule:evenodd;stroke:#000000;stroke-width:2;stroke-miterlimit:4;stroke-dasharray:none;stroke-opacity:1"
   id="path4836"
   d="m 428.79034,211.81209 a 3.7415235,2.743784 0 0 1 -5.28288,-0.19835 3.7415235,2.743784 0 0 1 0.26745,-3.87423 3.7415235,2.743784 0 0 1 5.28319,0.19392 3.7415235,2.743784 0 0 1 -0.26142,3.87445" /><path
   style="fill:none;fill-rule:evenodd;stroke:#000000;stroke-width:2;stroke-miterlimit:4;stroke-dasharray:none;stroke-opacity:1"
   id="path4838"
   d="m 435.7745,239.24995 a 3.7415235,2.743784 0 0 1 -5.28288,-0.19834 3.7415235,2.743784 0 0 1 0.26745,-3.87423 3.7415235,2.743784 0 0 1 5.28319,0.19392 3.7415235,2.743784 0 0 1 -0.26142,3.87445" /><path
   style="fill:none;fill-rule:evenodd;stroke:#000000;stroke-width:2;stroke-miterlimit:4;stroke-dasharray:none;stroke-opacity:1"
   id="path4840"
   d="m 413.82427,255.71264 a 3.7415235,2.743784 0 0 1 -5.28288,-0.19834 3.7415235,2.743784 0 0 1 0.26745,-3.87423 3.7415235,2.743784 0 0 1 5.28319,0.19392 3.7415235,2.743784 0 0 1 -0.26141,3.87445" /><path
   style="fill:none;fill-rule:evenodd;stroke:#000000;stroke-width:2;stroke-miterlimit:4;stroke-dasharray:none;stroke-opacity:1"
   id="path4842"
   d="m 437.77001,256.7104 a 3.7415235,2.743784 0 0 1 -5.28288,-0.19834 3.7415235,2.743784 0 0 1 0.26745,-3.87423 3.7415235,2.743784 0 0 1 5.28319,0.19392 3.7415235,2.743784 0 0 1 -0.26141,3.87445" /><path
   style="fill:none;fill-rule:evenodd;stroke:#000000;stroke-width:2;stroke-miterlimit:4;stroke-dasharray:none;stroke-opacity:1"
   id="path4844"
   d="m 374.91241,309.59059 a 3.7415235,2.743784 0 0 1 -5.28288,-0.19835 3.7415235,2.743784 0 0 1 0.26745,-3.87422 3.7415235,2.743784 0 0 1 5.28319,0.19392 3.7415235,2.743784 0 0 1 -0.26142,3.87445" /><path
   style="fill:none;fill-rule:evenodd;stroke:#000000;stroke-width:2;stroke-miterlimit:4;stroke-dasharray:none;stroke-opacity:1"
   id="path4846"
   d="m 362.93954,319.0691 a 3.7415235,2.743784 0 0 1 -5.28288,-0.19834 3.7415235,2.743784 0 0 1 0.26745,-3.87423 3.7415235,2.743784 0 0 1 5.28319,0.19392 3.7415235,2.743784 0 0 1 -0.26142,3.87445" /><path
   style="fill:none;fill-rule:evenodd;stroke:#000000;stroke-width:2;stroke-miterlimit:4;stroke-dasharray:none;stroke-opacity:1"
   id="path4848"
   d="m 327.02096,296.61998 a 3.7415235,2.743784 0 0 1 -5.28288,-0.19835 3.7415235,2.743784 0 0 1 0.26745,-3.87422 3.7415235,2.743784 0 0 1 5.28319,0.19392 3.7415235,2.743784 0 0 1 -0.26142,3.87444" /><path
   style="fill:none;fill-rule:evenodd;stroke:#000000;stroke-width:2;stroke-miterlimit:4;stroke-dasharray:none;stroke-opacity:1"
   id="path4850"
   d="m 399.35705,301.10975 a 3.7415235,2.743784 0 0 1 -5.28288,-0.19834 3.7415235,2.743784 0 0 1 0.26745,-3.87423 3.7415235,2.743784 0 0 1 5.28319,0.19392 3.7415235,2.743784 0 0 1 -0.26142,3.87445" /><path
   style="fill:none;fill-rule:evenodd;stroke:#000000;stroke-width:2;stroke-miterlimit:4;stroke-dasharray:none;stroke-opacity:1"
   id="path5348"
   d="m 333.00735,319.56798 a 3.7415235,2.743784 0 0 1 -5.28288,-0.19835 3.7415235,2.743784 0 0 1 0.26745,-3.87423 3.7415235,2.743784 0 0 1 5.28319,0.19392 3.7415235,2.743784 0 0 1 -0.26142,3.87445" /><path
   style="fill:none;fill-rule:evenodd;stroke:#000000;stroke-width:2;stroke-miterlimit:4;stroke-dasharray:none;stroke-opacity:1"
   id="path5350"
   d="m 319.53787,310.58833 a 3.7415235,2.743784 0 0 1 -5.28289,-0.19834 3.7415235,2.743784 0 0 1 0.26746,-3.87423 3.7415235,2.743784 0 0 1 5.28319,0.19392 3.7415235,2.743784 0 0 1 -0.26142,3.87445" /><path
   style="fill:none;fill-rule:evenodd;stroke:#000000;stroke-width:2;stroke-miterlimit:4;stroke-dasharray:none;stroke-opacity:1"
   id="path5366"
   d="m 303.07516,315.07814 a 3.7415235,2.743784 0 0 1 -5.28288,-0.19835 3.7415235,2.743784 0 0 1 0.26745,-3.87422 3.7415235,2.743784 0 0 1 5.28319,0.19392 3.7415235,2.743784 0 0 1 -0.26142,3.87444" /><path
   style="fill:none;fill-rule:evenodd;stroke:#000000;stroke-width:2;stroke-miterlimit:4;stroke-dasharray:none;stroke-opacity:1"
   id="path5368"
   d="m 311.55593,302.10753 a 3.7415235,2.743784 0 0 1 -5.28288,-0.19835 3.7415235,2.743784 0 0 1 0.26745,-3.87422 3.7415235,2.743784 0 0 1 5.28319,0.19391 3.7415235,2.743784 0 0 1 -0.26142,3.87445" /><path
   style="fill:none;fill-rule:evenodd;stroke:#000000;stroke-width:2;stroke-miterlimit:4;stroke-dasharray:none;stroke-opacity:1"
   id="path5370"
   d="m 255.18363,290.63353 a 3.7415235,2.743784 0 0 1 -5.28288,-0.19835 3.7415235,2.743784 0 0 1 0.26745,-3.87422 3.7415235,2.743784 0 0 1 5.28319,0.19392 3.7415235,2.743784 0 0 1 -0.26141,3.87444" /><path
   style="fill:none;fill-rule:evenodd;stroke:#000000;stroke-width:2;stroke-miterlimit:4;stroke-dasharray:none;stroke-opacity:1"
   id="path5372"
   d="m 274.14071,282.65162 a 3.7415235,2.743784 0 0 1 -5.28288,-0.19834 3.7415235,2.743784 0 0 1 0.26745,-3.87423 3.7415235,2.743784 0 0 1 5.28319,0.19392 3.7415235,2.743784 0 0 1 -0.26142,3.87445" /><path
   style="fill:none;fill-rule:evenodd;stroke:#000000;stroke-width:2;stroke-miterlimit:4;stroke-dasharray:none;stroke-opacity:1"
   id="path5374"
   d="m 275.13845,305.10075 a 3.7415235,2.743784 0 0 1 -5.28288,-0.19834 3.7415235,2.743784 0 0 1 0.26745,-3.87423 3.7415235,2.743784 0 0 1 5.28319,0.19392 3.7415235,2.743784 0 0 1 -0.26142,3.87445" /><path
   style="fill:none;fill-rule:evenodd;stroke:#000000;stroke-width:2;stroke-miterlimit:4;stroke-dasharray:none;stroke-opacity:1"
   id="path5388"
   d="m 240.71644,272.67424 a 3.7415235,2.743784 0 0 1 -5.28288,-0.19835 3.7415235,2.743784 0 0 1 0.26745,-3.87422 3.7415235,2.743784 0 0 1 5.28319,0.19392 3.7415235,2.743784 0 0 1 -0.26142,3.87444" /><path
   style="fill:none;fill-rule:evenodd;stroke:#000000;stroke-width:2;stroke-miterlimit:4;stroke-dasharray:none;stroke-opacity:1"
   id="path5390"
   d="m 290.60342,294.62449 a 3.7415235,2.743784 0 0 1 -5.28288,-0.19834 3.7415235,2.743784 0 0 1 0.26745,-3.87423 3.7415235,2.743784 0 0 1 5.28319,0.19392 3.7415235,2.743784 0 0 1 -0.26142,3.87445" /><path
   style="fill:none;fill-rule:evenodd;stroke:#000000;stroke-width:2;stroke-miterlimit:4;stroke-dasharray:none;stroke-opacity:1"
   id="path5396"
   d="m 259.67346,254.21602 a 3.7415235,2.743784 0 0 1 -5.28289,-0.19835 3.7415235,2.743784 0 0 1 0.26746,-3.87422 3.7415235,2.743784 0 0 1 5.28319,0.19391 3.7415235,2.743784 0 0 1 -0.26142,3.87445" /><path
   style="fill:none;fill-rule:evenodd;stroke:#000000;stroke-width:2;stroke-miterlimit:4;stroke-dasharray:none;stroke-opacity:1"
   id="path5398"
   d="m 270.64862,225.28158 a 3.7415235,2.743784 0 0 1 -5.28289,-0.19834 3.7415235,2.743784 0 0 1 0.26746,-3.87423 3.7415235,2.743784 0 0 1 5.28318,0.19392 3.7415235,2.743784 0 0 1 -0.26141,3.87445" /><path
   style="fill:none;fill-rule:evenodd;stroke:#000000;stroke-width:2;stroke-miterlimit:4;stroke-dasharray:none;stroke-opacity:1"
   id="path5400"
   d="m 269.65087,202.83243 a 3.7415235,2.743784 0 0 1 -5.28288,-0.19835 3.7415235,2.743784 0 0 1 0.26745,-3.87423 3.7415235,2.743784 0 0 1 5.28319,0.19392 3.7415235,2.743784 0 0 1 -0.26142,3.87445" /><path
   style="fill:none;fill-rule:evenodd;stroke:#000000;stroke-width:2;stroke-miterlimit:4;stroke-dasharray:none;stroke-opacity:1"
   id="path5402"
   d="m 294.09548,305.10072 a 3.7415235,2.743784 0 0 1 -5.28288,-0.19834 3.7415235,2.743784 0 0 1 0.26745,-3.87423 3.7415235,2.743784 0 0 1 5.28319,0.19392 3.7415235,2.743784 0 0 1 -0.26141,3.87445" /><path
   style="fill:none;fill-rule:evenodd;stroke:#000000;stroke-width:2;stroke-miterlimit:4;stroke-dasharray:none;stroke-opacity:1"
   id="path5430"
   d="m 257.67802,279.1595 a 3.7415235,2.743784 0 0 1 -5.28288,-0.19835 3.7415235,2.743784 0 0 1 0.26745,-3.87422 3.7415235,2.743784 0 0 1 5.28319,0.19392 3.7415235,2.743784 0 0 1 -0.26142,3.87444" /><path
   style="fill:none;fill-rule:evenodd;stroke:#000000;stroke-width:2;stroke-miterlimit:4;stroke-dasharray:none;stroke-opacity:1"
   id="path5434"
   d="m 352.96215,185.37199 a 3.7415235,2.743784 0 0 1 -5.28288,-0.19834 3.7415235,2.743784 0 0 1 0.26745,-3.87423 3.7415235,2.743784 0 0 1 5.28319,0.19392 3.7415235,2.743784 0 0 1 -0.26142,3.87445" /><path
   style="fill:none;fill-rule:evenodd;stroke:#000000;stroke-width:2;stroke-miterlimit:4;stroke-dasharray:none;stroke-opacity:1"
   id="path5436"
   d="m 318.54016,206.32452 a 3.7415235,2.743784 0 0 1 -5.28289,-0.19834 3.7415235,2.743784 0 0 1 0.26746,-3.87423 3.7415235,2.743784 0 0 1 5.28318,0.19392 3.7415235,2.743784 0 0 1 -0.26141,3.87445" /><path
   style="fill:none;fill-rule:evenodd;stroke:#000000;stroke-width:2;stroke-miterlimit:4;stroke-dasharray:none;stroke-opacity:1"
   id="path5438"
   d="m 299.58306,213.30868 a 3.7415235,2.743784 0 0 1 -5.28288,-0.19834 3.7415235,2.743784 0 0 1 0.26745,-3.87423 3.7415235,2.743784 0 0 1 5.28319,0.19392 3.7415235,2.743784 0 0 1 -0.26142,3.87445" /><path
   style="fill:none;fill-rule:evenodd;stroke:#000000;stroke-width:2;stroke-miterlimit:4;stroke-dasharray:none;stroke-opacity:1"
   id="path5448"
   d="m 286.11358,222.78721 a 3.7415235,2.743784 0 0 1 -5.28288,-0.19834 3.7415235,2.743784 0 0 1 0.26745,-3.87423 3.7415235,2.743784 0 0 1 5.28319,0.19392 3.7415235,2.743784 0 0 1 -0.26142,3.87445" /><path
   style="fill:none;fill-rule:evenodd;stroke:#000000;stroke-width:2;stroke-miterlimit:4;stroke-dasharray:none;stroke-opacity:1"
   id="path5450"
   d="m 285.61468,213.3087 a 3.7415235,2.743784 0 0 1 -5.28288,-0.19835 3.7415235,2.743784 0 0 1 0.26745,-3.87422 3.7415235,2.743784 0 0 1 5.28319,0.19392 3.7415235,2.743784 0 0 1 -0.26142,3.87444" /><path
   style="fill:none;fill-rule:evenodd;stroke:#000000;stroke-width:2;stroke-miterlimit:4;stroke-dasharray:none;stroke-opacity:1"
   id="path5452"
   d="m 255.68252,229.77141 a 3.7415235,2.743784 0 0 1 -5.28288,-0.19835 3.7415235,2.743784 0 0 1 0.26745,-3.87423 3.7415235,2.743784 0 0 1 5.28319,0.19392 3.7415235,2.743784 0 0 1 -0.26142,3.87445" /><path
   style="fill:none;fill-rule:evenodd;stroke:#000000;stroke-width:2;stroke-miterlimit:4;stroke-dasharray:none;stroke-opacity:1"
   id="path5454"
   d="m 337.99603,192.35615 a 3.7415235,2.743784 0 0 1 -5.28289,-0.19834 3.7415235,2.743784 0 0 1 0.26746,-3.87423 3.7415235,2.743784 0 0 1 5.28319,0.19392 3.7415235,2.743784 0 0 1 -0.26142,3.87445" /><path
   style="fill:none;fill-rule:evenodd;stroke:#000000;stroke-width:2;stroke-miterlimit:4;stroke-dasharray:none;stroke-opacity:1"
   id="path5456"
   d="m 294.09552,192.3562 a 3.7415235,2.743784 0 0 1 -5.28289,-0.19835 3.7415235,2.743784 0 0 1 0.26745,-3.87422 3.7415235,2.743784 0 0 1 5.28319,0.19392 3.7415235,2.743784 0 0 1 -0.26141,3.87444" /><path
   style="fill:none;fill-rule:evenodd;stroke:#000000;stroke-width:2;stroke-miterlimit:4;stroke-dasharray:none;stroke-opacity:1"
   id="path5458"
   d="m 275.63732,234.26123 a 3.7415235,2.743784 0 0 1 -5.28288,-0.19835 3.7415235,2.743784 0 0 1 0.26745,-3.87422 3.7415235,2.743784 0 0 1 5.28319,0.19392 3.7415235,2.743784 0 0 1 -0.26142,3.87444" /><path
   style="fill:none;fill-rule:evenodd;stroke:#000000;stroke-width:2;stroke-miterlimit:4;stroke-dasharray:none;stroke-opacity:1"
   id="path5460"
   d="m 263.16555,269.18211 a 3.7415235,2.743784 0 0 1 -5.28288,-0.19834 3.7415235,2.743784 0 0 1 0.26745,-3.87423 3.7415235,2.743784 0 0 1 5.28319,0.19392 3.7415235,2.743784 0 0 1 -0.26142,3.87445" /><path
   style="fill:none;fill-rule:evenodd;stroke:#000000;stroke-width:2;stroke-miterlimit:4;stroke-dasharray:none;stroke-opacity:1"
   id="path5464"
   d="m 277.63281,272.67424 a 3.7415235,2.743784 0 0 1 -5.28289,-0.19835 3.7415235,2.743784 0 0 1 0.26746,-3.87422 3.7415235,2.743784 0 0 1 5.28319,0.19392 3.7415235,2.743784 0 0 1 -0.26142,3.87444" /><path
   style="fill:none;fill-rule:evenodd;stroke:#000000;stroke-width:2;stroke-miterlimit:4;stroke-dasharray:none;stroke-opacity:1"
   id="path5468"
   d="m 240.21757,234.26126 a 3.7415235,2.743784 0 0 1 -5.28288,-0.19835 3.7415235,2.743784 0 0 1 0.26745,-3.87422 3.7415235,2.743784 0 0 1 5.28319,0.19392 3.7415235,2.743784 0 0 1 -0.26142,3.87444" /><path
   style="fill:none;fill-rule:evenodd;stroke:#000000;stroke-width:2;stroke-miterlimit:4;stroke-dasharray:none;stroke-opacity:1"
   id="path5470"
   d="m 290.10455,284.14821 a 3.7415235,2.743784 0 0 1 -5.28288,-0.19835 3.7415235,2.743784 0 0 1 0.26745,-3.87423 3.7415235,2.743784 0 0 1 5.28319,0.19392 3.7415235,2.743784 0 0 1 -0.26142,3.87445" /><path
   style="fill:none;fill-rule:evenodd;stroke:#000000;stroke-width:2;stroke-miterlimit:4;stroke-dasharray:none;stroke-opacity:1"
   id="path5472"
   d="m 349.96896,198.3426 a 3.7415235,2.743784 0 0 1 -5.28288,-0.19834 3.7415235,2.743784 0 0 1 0.26745,-3.87423 3.7415235,2.743784 0 0 1 5.28319,0.19392 3.7415235,2.743784 0 0 1 -0.26142,3.87445" /><path
   style="fill:none;fill-rule:evenodd;stroke:#000000;stroke-width:2;stroke-miterlimit:4;stroke-dasharray:none;stroke-opacity:1"
   id="path5474"
   d="m 311.55596,195.34935 a 3.7415235,2.743784 0 0 1 -5.28288,-0.19835 3.7415235,2.743784 0 0 1 0.26745,-3.87422 3.7415235,2.743784 0 0 1 5.28319,0.19392 3.7415235,2.743784 0 0 1 -0.26142,3.87444" /><path
   style="fill:none;fill-rule:evenodd;stroke:#000000;stroke-width:2;stroke-miterlimit:4;stroke-dasharray:none;stroke-opacity:1"
   id="path5476"
   d="m 249.69613,262.69682 a 3.7415235,2.743784 0 0 1 -5.28288,-0.19834 3.7415235,2.743784 0 0 1 0.26745,-3.87423 3.7415235,2.743784 0 0 1 5.28319,0.19392 3.7415235,2.743784 0 0 1 -0.26142,3.87445" /><path
   style="fill:none;fill-rule:evenodd;stroke:#000000;stroke-width:2;stroke-miterlimit:4;stroke-dasharray:none;stroke-opacity:1"
   id="path5478"
   d="m 272.6441,292.62901 a 3.7415235,2.743784 0 0 1 -5.28288,-0.19834 3.7415235,2.743784 0 0 1 0.26745,-3.87423 3.7415235,2.743784 0 0 1 5.28319,0.19392 3.7415235,2.743784 0 0 1 -0.26142,3.87445" /><path
   style="fill:none;fill-rule:evenodd;stroke:#000000;stroke-width:2;stroke-miterlimit:4;stroke-dasharray:none;stroke-opacity:1"
   id="path5484"
   d="m 251.19273,218.29741 a 3.7415235,2.743784 0 0 1 -5.28288,-0.19835 3.7415235,2.743784 0 0 1 0.26745,-3.87422 3.7415235,2.743784 0 0 1 5.28319,0.19391 3.7415235,2.743784 0 0 1 -0.26142,3.87445" /><path
   style="fill:none;fill-rule:evenodd;stroke:#000000;stroke-width:2;stroke-miterlimit:4;stroke-dasharray:none;stroke-opacity:1"
   id="path5486"
   d="m 287.61022,202.83244 a 3.7415235,2.743784 0 0 1 -5.28288,-0.19834 3.7415235,2.743784 0 0 1 0.26745,-3.87423 3.7415235,2.743784 0 0 1 5.28319,0.19392 3.7415235,2.743784 0 0 1 -0.26141,3.87445" /><path
   style="fill:none;fill-rule:evenodd;stroke:#000000;stroke-width:2;stroke-miterlimit:4;stroke-dasharray:none;stroke-opacity:1"
   id="path5488"
   d="m 249.19725,246.2341 a 3.7415235,2.743784 0 0 1 -5.28289,-0.19835 3.7415235,2.743784 0 0 1 0.26746,-3.87422 3.7415235,2.743784 0 0 1 5.28318,0.19392 3.7415235,2.743784 0 0 1 -0.26141,3.87444" /><path
   style="fill:none;fill-rule:evenodd;stroke:#000000;stroke-width:2;stroke-miterlimit:4;stroke-dasharray:none;stroke-opacity:1"
   id="path5490"
   d="m 267.65539,214.8053 a 3.7415235,2.743784 0 0 1 -5.28288,-0.19835 3.7415235,2.743784 0 0 1 0.26745,-3.87423 3.7415235,2.743784 0 0 1 5.28319,0.19392 3.7415235,2.743784 0 0 1 -0.26142,3.87445" /><path
   style="fill:none;fill-rule:evenodd;stroke:#000000;stroke-width:2;stroke-miterlimit:4;stroke-dasharray:none;stroke-opacity:1"
   id="path5500"
   d="m 327.5198,199.83923 a 3.7415235,2.743784 0 0 1 -5.28288,-0.19834 3.7415235,2.743784 0 0 1 0.26745,-3.87423 3.7415235,2.743784 0 0 1 5.28319,0.19392 3.7415235,2.743784 0 0 1 -0.26142,3.87445" /><path
   style="fill:none;fill-rule:evenodd;stroke:#000000;stroke-width:2;stroke-miterlimit:4;stroke-dasharray:none;stroke-opacity:1"
   id="path5504"
   d="m 261.66894,238.2522 a 3.7415235,2.743784 0 0 1 -5.28288,-0.19835 3.7415235,2.743784 0 0 1 0.26745,-3.87423 3.7415235,2.743784 0 0 1 5.28319,0.19392 3.7415235,2.743784 0 0 1 -0.26142,3.87445" /><path
   style="fill:none;fill-rule:evenodd;stroke:#000000;stroke-width:2;stroke-miterlimit:4;stroke-dasharray:none;stroke-opacity:1"
   id="path5506"
   d="m 322.53106,186.36975 a 3.7415235,2.743784 0 0 1 -5.28288,-0.19835 3.7415235,2.743784 0 0 1 0.26745,-3.87422 3.7415235,2.743784 0 0 1 5.28319,0.19392 3.7415235,2.743784 0 0 1 -0.26142,3.87444" /><path
   style="fill:none;fill-rule:evenodd;stroke:#000000;stroke-width:2;stroke-miterlimit:4;stroke-dasharray:none;stroke-opacity:1"
   id="path5508"
   d="m 303.57406,204.32905 a 3.7415235,2.743784 0 0 1 -5.28288,-0.19834 3.7415235,2.743784 0 0 1 0.26745,-3.87423 3.7415235,2.743784 0 0 1 5.28319,0.19392 3.7415235,2.743784 0 0 1 -0.26142,3.87445" /><path
   style="fill:none;fill-rule:evenodd;stroke:#000000;stroke-width:2;stroke-miterlimit:4;stroke-dasharray:none;stroke-opacity:1"
   id="path5510"
   d="m 338.9938,205.82568 a 3.7415235,2.743784 0 0 1 -5.28288,-0.19834 3.7415235,2.743784 0 0 1 0.26745,-3.87423 3.7415235,2.743784 0 0 1 5.28319,0.19392 3.7415235,2.743784 0 0 1 -0.26142,3.87445" /><path
   style="fill:none;fill-rule:evenodd;stroke:#000000;stroke-width:2;stroke-miterlimit:4;stroke-dasharray:none;stroke-opacity:1"
   id="path5512"
   d="m 271.14749,261.20021 a 3.7415235,2.743784 0 0 1 -5.28289,-0.19835 3.7415235,2.743784 0 0 1 0.26746,-3.87422 3.7415235,2.743784 0 0 1 5.28318,0.19392 3.7415235,2.743784 0 0 1 -0.26141,3.87444" /><path
   style="fill:none;fill-rule:evenodd;stroke:#000000;stroke-width:2;stroke-miterlimit:4;stroke-dasharray:none;stroke-opacity:1"
   id="path5514"
   d="m 235.22886,253.71716 a 3.7415235,2.743784 0 0 1 -5.28288,-0.19834 3.7415235,2.743784 0 0 1 0.26745,-3.87423 3.7415235,2.743784 0 0 1 5.28319,0.19392 3.7415235,2.743784 0 0 1 -0.26142,3.87445" /><path
   style="fill:none;fill-rule:evenodd;stroke:#000000;stroke-width:2;stroke-miterlimit:4;stroke-dasharray:none;stroke-opacity:1"
   id="path5516"
   d="m 307.06616,292.13014 a 3.7415235,2.743784 0 0 1 -5.28289,-0.19834 3.7415235,2.743784 0 0 1 0.26746,-3.87423 3.7415235,2.743784 0 0 1 5.28319,0.19392 3.7415235,2.743784 0 0 1 -0.26142,3.87445" /><path
   style="fill:none;fill-rule:evenodd;stroke:#000000;stroke-width:2;stroke-miterlimit:4;stroke-dasharray:none;stroke-opacity:1"
   id="path5518"
   d="m 271.14752,246.73295 a 3.7415235,2.743784 0 0 1 -5.28289,-0.19834 3.7415235,2.743784 0 0 1 0.26746,-3.87423 3.7415235,2.743784 0 0 1 5.28319,0.19392 3.7415235,2.743784 0 0 1 -0.26142,3.87445" /><path
   style="fill:none;stroke:#000000;stroke-width:2;stroke-linecap:butt;stroke-linejoin:miter;stroke-miterlimit:4;stroke-dasharray:none;stroke-opacity:1"
   d="m 334.41101,510.78812 c -0.0979,-2.59369 4.4329,-2.5108 6.8787,-2.55747 2.35145,-0.0449 6.62634,0.1526 6.70234,2.20472 l 0.35275,9.52436 c 0.0869,2.34567 -3.86792,3.42731 -6.26138,3.52755 -2.68109,0.11228 -7.22571,-0.86139 -7.31966,-3.35117 z"
   id="path5713" /><path
   style="fill:none;stroke:#000000;stroke-width:2;stroke-linecap:butt;stroke-linejoin:miter;stroke-miterlimit:4;stroke-dasharray:none;stroke-opacity:1"
   d="m 321.88823,509.20073 c -0.44168,-3.97515 -12.96369,-3.52744 -11.99364,0.35275 2.64566,10.58263 0,0 2.64566,10.58263 0.85567,3.42269 10.97223,3.68283 10.58262,0.17638 -1.23464,-11.11176 0,0 -1.23464,-11.11176 z"
   id="path7003" /><path
   style="fill:none;stroke:#000000;stroke-width:2;stroke-linecap:butt;stroke-linejoin:miter;stroke-miterlimit:4;stroke-dasharray:none;stroke-opacity:1"
   d="m 299.84109,517.84321 c -4.76218,-10.40625 0,0 -4.76218,-10.40625 -1.51228,-3.30461 -12.42451,-4.99387 -10.759,-1.76378 5.82044,11.28814 0,0 5.82044,11.28814 1.48802,2.88587 11.05186,3.83434 9.70074,0.88189 z"
   id="path7005" /><path
   style="fill:none;stroke:#000000;stroke-width:2;stroke-linecap:butt;stroke-linejoin:miter;stroke-miterlimit:4;stroke-dasharray:none;stroke-opacity:1"
   d="m 275.85381,513.96291 c -6.87871,-10.0535 0,0 -6.87871,-10.0535 -1.94293,-2.83966 -11.70584,-5.91293 -9.87712,-2.99841 5.64407,8.99524 0,0 5.64407,8.99524 2.09569,3.34 13.33833,7.31089 11.11176,4.05667 z"
   id="path7007" /><path
   style="fill:none;stroke:#000000;stroke-width:2;stroke-linecap:butt;stroke-linejoin:miter;stroke-miterlimit:4;stroke-dasharray:none;stroke-opacity:1"
   d="m 362.63135,509.02435 c 0.72312,-3.46063 11.57453,-4.09888 10.58262,-0.70551 -3.35116,11.46451 0,0 -3.35116,11.46451 -0.91262,3.12212 -10.36605,4.24227 -9.70074,1.05827 2.46928,-11.81727 0,0 2.46928,-11.81727 z"
   id="path7009" /><path
   style="fill:none;stroke:#000000;stroke-width:2;stroke-linecap:butt;stroke-linejoin:miter;stroke-miterlimit:4;stroke-dasharray:none;stroke-opacity:1"
   d="m 388.73516,506.55507 c 1.4384,-2.7946 10.86742,-3.98603 9.34799,-1.23464 -6.52596,11.81727 0,0 -6.52596,11.81727 -1.46722,2.65686 -10.38421,4.1096 -8.99523,1.41101 6.1732,-11.99364 0,0 6.1732,-11.99364 z"
   id="path7011" /><path
   style="fill:none;stroke:#000000;stroke-width:2;stroke-linecap:butt;stroke-linejoin:miter;stroke-miterlimit:4;stroke-dasharray:none;stroke-opacity:1"
   d="m 406.54925,513.43378 c 7.58421,-10.93538 0,0 7.58421,-10.93538 2.10474,-3.03474 13.21021,-5.40812 10.75901,-2.64566 -11.11176,12.52278 0,0 -11.11176,12.52278 -1.6169,1.82222 -8.61983,3.06009 -7.23146,1.05826 z"
   id="path7013" /><path
   style="fill:none;stroke:#000000;stroke-width:2;stroke-linecap:butt;stroke-linejoin:miter;stroke-miterlimit:4;stroke-dasharray:none;stroke-opacity:1"
   d="m 432.30031,505.84956 c 10.22987,-10.759 0,0 10.22987,-10.759 1.55059,-1.63079 7.80443,-4.00964 6.34957,-2.2929 -8.81885,10.40625 0,0 -8.81885,10.40625 -1.76698,2.08503 -9.64383,4.6263 -7.76059,2.64565 z"
   id="path7015" /><path
   style="fill:none;stroke:#000000;stroke-width:2;stroke-linecap:butt;stroke-linejoin:miter;stroke-miterlimit:4;stroke-dasharray:none;stroke-opacity:1"
   d="m 458.5805,494.20867 c 8.99523,-8.81885 0,0 8.99523,-8.81885 1.88686,-1.84986 9.56273,-4.35132 7.40784,-2.82204 -16.40307,11.64089 -21.19068,16.33462 -16.40307,11.64089 z"
   id="path7017" /><path
   style="fill:none;stroke:#000000;stroke-width:2;stroke-linecap:butt;stroke-linejoin:miter;stroke-miterlimit:4;stroke-dasharray:none;stroke-opacity:1"
   d="m 251.51376,506.90782 c -9.17161,-9.87711 0,0 -9.17161,-9.87711 -1.97612,-2.12812 -9.93719,-5.43478 -8.11334,-3.17479 8.11334,10.05349 0,0 8.11334,10.05349 2.01998,2.50302 11.36024,5.35539 9.17161,2.99841 z"
   id="path7019" /><path
   style="fill:none;stroke:#000000;stroke-width:2;stroke-linecap:butt;stroke-linejoin:miter;stroke-miterlimit:4;stroke-dasharray:none;stroke-opacity:1"
   d="m 224.70444,496.14882 c 3.91942,2.98623 0,0 -7.76059,-8.99523 -1.6153,-1.87228 -9.022,-3.79151 -7.05508,-2.2929 14.81567,11.28813 0,0 14.81567,11.28813 z"
   id="path7021" />
  </g>
</svg>
