<?xml version="1.0" encoding="UTF-8"?>
<svg width="500" height="350" xmlns="http://www.w3.org/2000/svg">
  <defs>
    <linearGradient id="appGradient" x1="0%" y1="0%" x2="100%" y2="100%">
      <stop offset="0%" style="stop-color:#1E88E5;stop-opacity:1" />
      <stop offset="50%" style="stop-color:#2196F3;stop-opacity:1" />
      <stop offset="100%" style="stop-color:#1976D2;stop-opacity:1" />
    </linearGradient>
  </defs>
  <rect width="100%" height="100%" fill="url(#appGradient)" rx="30"/>
  <circle cx="250" cy="175" r="87.5" fill="white" opacity="0.9"/>
  <g transform="translate(250,175)" opacity="0.4">
    <circle r="6" fill="#1976D2"/>
    <g transform="rotate(0)"><circle cx="25" cy="0" r="3" fill="#1976D2"/><line x1="6" y1="0" x2="22" y2="0" stroke="#1976D2" stroke-width="1.5"/></g><g transform="rotate(60)"><circle cx="25" cy="0" r="3" fill="#1976D2"/><line x1="6" y1="0" x2="22" y2="0" stroke="#1976D2" stroke-width="1.5"/></g><g transform="rotate(120)"><circle cx="25" cy="0" r="3" fill="#1976D2"/><line x1="6" y1="0" x2="22" y2="0" stroke="#1976D2" stroke-width="1.5"/></g><g transform="rotate(180)"><circle cx="25" cy="0" r="3" fill="#1976D2"/><line x1="6" y1="0" x2="22" y2="0" stroke="#1976D2" stroke-width="1.5"/></g><g transform="rotate(240)"><circle cx="25" cy="0" r="3" fill="#1976D2"/><line x1="6" y1="0" x2="22" y2="0" stroke="#1976D2" stroke-width="1.5"/></g><g transform="rotate(300)"><circle cx="25" cy="0" r="3" fill="#1976D2"/><line x1="6" y1="0" x2="22" y2="0" stroke="#1976D2" stroke-width="1.5"/></g>
  </g>
  <text x="250" y="315" text-anchor="middle" fill="white" font-family="Arial, sans-serif" font-size="23.333333333333332" font-weight="600">Ultimate Zigbee</text>
</svg>