<svg width="64" height="64" xmlns="http://www.w3.org/2000/svg">
  <defs>
    <linearGradient id="hybrid-gradient" x1="0%" y1="0%" x2="100%" y2="100%">
      <stop offset="0%" style="stop-color:#FF9800;stop-opacity:1" />
      <stop offset="50%" style="stop-color:#FB8C00;stop-opacity:1" />
      <stop offset="100%" style="stop-color:#4CAF50;stop-opacity:1" />
    </linearGradient>
  </defs>
  
  <!-- Background circle -->
  <circle cx="32" cy="32" r="28" fill="#FFFFFF" opacity="0.1"/>
  
  <!-- Circular arrows (cycle) -->
  <path d="M 32 14 A 18 18 0 1 1 32 50" 
        fill="none" stroke="url(#hybrid-gradient)" stroke-width="3" stroke-linecap="round"/>
  <path d="M 32 50 A 18 18 0 1 1 32 14" 
        fill="none" stroke="url(#hybrid-gradient)" stroke-width="3" stroke-linecap="round" opacity="0.6"/>
  
  <!-- Arrow heads -->
  <path d="M 28 16 L 32 14 L 32 18 Z" fill="#FF9800"/>
  <path d="M 36 48 L 32 50 L 32 46 Z" fill="#4CAF50"/>
  
  <!-- Center symbols -->
  <g transform="translate(32, 32)">
    <!-- Lightning (AC) -->
    <path d="M -4 -8 L -8 -2 L -5 -2 L -6 2 L -2 -4 L -5 -4 Z" fill="#2196F3" opacity="0.8"/>
    <!-- Battery (DC) -->
    <rect x="1" y="-6" width="6" height="10" rx="1" fill="#4CAF50" opacity="0.8"/>
    <rect x="3" y="-7" width="2" height="1.5" rx="0.5" fill="#4CAF50" opacity="0.8"/>
  </g>
</svg>