<?xml version="1.0" encoding="UTF-8" standalone="no"?>
<!-- Generator: Adobe Illustrator 22.1.0, SVG Export Plug-In . SVG Version: 6.00 Build 0)  -->

<svg
   xmlns:dc="http://purl.org/dc/elements/1.1/"
   xmlns:cc="http://creativecommons.org/ns#"
   xmlns:rdf="http://www.w3.org/1999/02/22-rdf-syntax-ns#"
   xmlns:svg="http://www.w3.org/2000/svg"
   xmlns="http://www.w3.org/2000/svg"
   version="1.1"
   id="Layer_1"
   x="0px"
   y="0px"
   viewBox="0 0 960 960"
   style="enable-background:new 0 0 667 666;"
   xml:space="preserve"><metadata
   id="metadata319"><rdf:RDF><cc:Work
       rdf:about=""><dc:format>image/svg+xml</dc:format><dc:type
         rdf:resource="http://purl.org/dc/dcmitype/StillImage" /></cc:Work></rdf:RDF></metadata><defs
   id="defs317"><marker
     orient="auto"
     refY="0"
     refX="0"
     id="Arrow1Send"
     style="overflow:visible"><path
       id="path4714"
       d="M 0,0 5,-5 -12.5,0 5,5 Z"
       style="fill:#000000;fill-opacity:1;fill-rule:evenodd;stroke:#000000;stroke-width:1.00000003pt;stroke-opacity:1"
       transform="matrix(-0.2,0,0,-0.2,-1.2,0)" /></marker><clipPath
     id="clipPath69-0"><path
       id="path71-2"
       d="m 409.441,126.252 v -43.63 h 147.796 v 43.63" /></clipPath><clipPath
     id="clipPath101-1"><path
       id="path103-6"
       d="m 409.441,126.252 v -43.63 h 147.796 v 43.63" /></clipPath><clipPath
     id="clipPath69"><path
       id="path71"
       d="m 409.441,126.252 v -43.63 h 147.796 v 43.63" /></clipPath><clipPath
     id="clipPath101"><path
       id="path103"
       d="m 409.441,126.252 v -43.63 h 147.796 v 43.63" /></clipPath></defs>
<style
   type="text/css"
   id="style2">
	.st0{fill:none;stroke:#000000;stroke-width:2;stroke-linecap:round;stroke-linejoin:round;stroke-miterlimit:10;}
</style>

<path
   style="fill:none;fill-opacity:1;fill-rule:evenodd;stroke:#000000;stroke-width:9;stroke-miterlimit:4;stroke-dasharray:none;stroke-opacity:1"
   id="path862"
   d="M 339.33827,122.06038 A 228.58475,228.58475 0 0 1 567.22779,351.32893 228.58475,228.58475 0 0 1 337.96856,579.22782 228.58475,228.58475 0 0 1 110.0603,349.97789 228.58475,228.58475 0 0 1 339.30092,122.06027" /><path
   d="m 361.63795,347.53839 a 43.652607,43.652607 0 0 1 19.00675,49.00097 43.652607,43.652607 0 0 1 -41.87882,31.75715 43.652607,43.652607 0 0 1 -42.05539,-31.52294 43.652607,43.652607 0 0 1 18.73299,-49.10628"
   id="path864"
   style="fill:none;fill-opacity:1;fill-rule:evenodd;stroke:#000000;stroke-width:5;stroke-miterlimit:4;stroke-dasharray:none;stroke-opacity:1" /><path
   d="m 338.73228,355.59921 a 29.044992,29.044992 0 0 1 28.95666,29.13188 29.044992,29.044992 0 0 1 -29.1307,28.95785 29.044992,29.044992 0 0 1 -28.95904,-29.12951 29.044992,29.044992 0 0 1 29.12833,-28.96023"
   id="path866"
   style="fill:#000000;fill-opacity:1;fill-rule:evenodd;stroke:#000000;stroke-width:1.14357996;stroke-miterlimit:4;stroke-dasharray:none;stroke-opacity:1" /><path
   style="fill:none;fill-opacity:1;fill-rule:evenodd;stroke:#000000;stroke-width:5;stroke-miterlimit:4;stroke-dasharray:none;stroke-opacity:1"
   id="path868"
   d="m 362.79668,-252.32148 a 24.154488,24.154488 0 0 1 -12.0579,21.20974 24.154488,24.154488 0 0 1 -24.39736,-0.12168 24.154488,24.154488 0 0 1 -11.84575,-21.32896"
   transform="scale(1,-1)" /><path
   style="fill:none;stroke:#000000;stroke-width:5;stroke-linecap:butt;stroke-linejoin:miter;stroke-miterlimit:4;stroke-dasharray:none;stroke-opacity:1"
   d="m 314.49096,251.76284 -0.21598,97.97688"
   id="path870" /><path
   style="fill:none;stroke:#000000;stroke-width:5;stroke-linecap:butt;stroke-linejoin:miter;stroke-miterlimit:4;stroke-dasharray:none;stroke-opacity:1"
   d="m 362.79852,251.97425 0.006,97.65484"
   id="path872" /><path
   style="fill:none;stroke:#000000;stroke-width:19.90226364;stroke-linecap:round;stroke-linejoin:miter;stroke-miterlimit:4;stroke-dasharray:none;stroke-opacity:1"
   d="m 338.7054,362.41729 -0.82817,-52.61732"
   id="path874" /><path
   style="fill:none;stroke:#000000;stroke-width:5;stroke-linecap:butt;stroke-linejoin:miter;stroke-miterlimit:4;stroke-dasharray:none;stroke-opacity:1"
   d="m 362.63136,254.83051 h -9.96531"
   id="path876" /><path
   id="path878"
   d="m 362.63136,268.83051 h -9.96531"
   style="fill:none;stroke:#000000;stroke-width:5;stroke-linecap:butt;stroke-linejoin:miter;stroke-miterlimit:4;stroke-dasharray:none;stroke-opacity:1" /><path
   style="fill:none;stroke:#000000;stroke-width:5;stroke-linecap:butt;stroke-linejoin:miter;stroke-miterlimit:4;stroke-dasharray:none;stroke-opacity:1"
   d="m 362.63136,282.83051 h -9.96531"
   id="path880" /><path
   style="fill:#000000;fill-opacity:1;fill-rule:evenodd;stroke:#000000;stroke-width:0.13564482;stroke-miterlimit:4;stroke-dasharray:none;stroke-opacity:1"
   id="path884"
   d="m 338.65454,473.19894 a 3.4451487,3.4451487 0 0 1 3.43467,3.45546 3.4451487,3.4451487 0 0 1 -3.45532,3.43481 3.4451487,3.4451487 0 0 1 -3.43495,-3.45518 3.4451487,3.4451487 0 0 1 3.45503,-3.43509" /></svg>